<?xml version="1.0" encoding="utf-8"?>
<!-- Generator: Adobe Illustrator 22.1.0, SVG Export Plug-In . SVG Version: 6.00 Build 0)  -->
<svg version="1.1" id="Layer_1" xmlns="http://www.w3.org/2000/svg" xmlns:xlink="http://www.w3.org/1999/xlink" x="0px" y="0px"
	 width="194.1px" height="111.2px" viewBox="0 0 194.1 111.2" style="enable-background:new 0 0 194.1 111.2;" xml:space="preserve"
	>
<style type="text/css">
	.st0{fill:#A11A18;}
</style>
<g>
	<polygon points="15.6,77.1 15.6,10.1 50.5,10.1 50.5,20.4 29.7,20.4 29.7,37.6 49.5,37.6 49.5,47.9 29.7,47.9 29.7,77.1 	"/>
	<path d="M57.9,43.6c0-17.7,0-34.7,23.1-34.7c23.1,0,23.1,16.9,23.1,34.7c0,17.6,0,34.7-23.1,34.7C57.9,78.3,57.9,61.2,57.9,43.6
		 M90,43.6C90,26.4,88.9,19,81,19c-7.9,0-8.9,7.4-8.9,24.6c0,17.2,1,24.6,8.9,24.6C88.9,68.2,90,60.8,90,43.6"/>
	<polygon points="112.1,77.1 112.1,10.1 134.7,10.1 145.2,55.7 145.4,55.7 156.5,10.1 178.4,10.1 178.4,77.1 164.7,77.1 164.7,25.4 
		164.5,25.4 151.6,77.1 138.2,77.1 126,25.4 125.8,25.4 125.8,77.1 	"/>
	<polygon class="st0" points="27.8,83.3 27.8,85.3 22.9,85.3 22.9,101.9 20.5,101.9 20.5,85.3 15.6,85.3 15.6,83.3 	"/>
	<polygon class="st0" points="30.7,101.9 30.7,83.3 40.3,83.3 40.3,85.3 33.1,85.3 33.1,91.3 39.8,91.3 39.8,93.4 33.1,93.4 
		33.1,99.8 40.5,99.8 40.5,101.9 	"/>
	<path class="st0" d="M51.7,88.4c0-1.1-0.1-2.1-0.5-2.7c-0.5-0.6-1.6-0.8-2.1-0.8c-2,0-2.7,1.2-2.8,1.4c-0.1,0.2-0.5,0.7-0.5,3.9v5
		c0,4.6,1.5,5.1,3.3,5.1c0.7,0,2.9-0.3,2.9-3.9h2.4c0.1,5.9-4,5.9-5.3,5.9c-2.3,0-5.9-0.2-5.9-7.4v-5.3c0-5.3,2.3-6.8,6-6.8
		c3.7,0,5.1,1.9,4.9,5.5H51.7z"/>
	<polygon class="st0" points="57.9,101.9 57.9,83.3 60.3,83.3 60.3,91.3 66.8,91.3 66.8,83.3 69.2,83.3 69.2,101.9 66.8,101.9 
		66.8,93.4 60.3,93.4 60.3,101.9 	"/>
	<polygon class="st0" points="86,83.3 86,101.9 82.8,101.9 75.4,85.7 75.4,85.7 75.4,101.9 73.3,101.9 73.3,83.3 76.6,83.3 
		83.9,99.2 83.9,99.2 83.9,83.3 	"/>
	<path class="st0" d="M90,95.1V89c0-3.7,1.9-6.1,5.8-6.1c3.9,0,5.8,2.4,5.8,6.1v6.1c0,5.2-1.9,7.2-5.8,7.2
		C91.9,102.2,90,100.2,90,95.1 M99.2,95.2v-6.3c0-3.9-2.7-4-3.4-4c-0.7,0-3.4,0.1-3.4,4v6.3c0,4.1,1.2,5.1,3.4,5.1
		C98,100.3,99.2,99.2,99.2,95.2"/>
	<polygon class="st0" points="105.5,101.9 105.5,83.3 107.9,83.3 107.9,99.8 114.7,99.8 114.7,101.9 	"/>
	<path class="st0" d="M117.2,95.1V89c0-3.7,1.9-6.1,5.8-6.1c3.9,0,5.8,2.4,5.8,6.1v6.1c0,5.2-1.9,7.2-5.8,7.2
		C119.1,102.2,117.2,100.2,117.2,95.1 M126.4,95.2v-6.3c0-3.9-2.7-4-3.4-4c-0.7,0-3.4,0.1-3.4,4v6.3c0,4.1,1.2,5.1,3.4,5.1
		C125.2,100.3,126.4,99.2,126.4,95.2"/>
	<path class="st0" d="M141.6,88.2c0-2.2-0.9-3.4-3.3-3.4c-0.7,0-3.4,0.1-3.4,4v6.3c0,4.1,1.2,5.1,3.4,5.1c1.7,0,2.8-0.5,3.3-0.8
		v-5.6h-3.4v-2.1h5.8v9c-1.5,0.8-3.3,1.4-5.7,1.4c-3.9,0-5.8-2-5.8-7.2V89c0-3.7,1.9-6.1,5.8-6.1c4,0,5.9,1.5,5.8,5.4H141.6z"/>
	<rect x="148.2" y="83.3" class="st0" width="2.4" height="18.6"/>
	<polygon class="st0" points="154.7,101.9 154.7,83.3 164.3,83.3 164.3,85.3 157,85.3 157,91.3 163.7,91.3 163.7,93.4 157,93.4 
		157,99.8 164.4,99.8 164.4,101.9 	"/>
	<path class="st0" d="M169.6,96.3v0.5c0,2.5,1.6,3.3,3.1,3.3c1.9,0,3.3-0.8,3.3-3c0-4.1-8.3-3.7-8.3-9.3c0-3.3,2.3-5,5.5-5
		c3.4,0,5.3,1.6,5.2,5.4h-2.5c0-2-0.6-3.4-2.9-3.4c-1.4,0-2.9,0.7-2.9,2.7c0,4.1,8.3,3.5,8.3,9.4c0,3.9-2.7,5.2-5.8,5.2
		c-5.5,0.1-5.5-4.1-5.4-5.9H169.6z"/>
</g>
</svg>
