<?xml version="1.0" encoding="utf-8"?>
<!-- Generator: Adobe Illustrator 24.1.0, SVG Export Plug-In . SVG Version: 6.00 Build 0)  -->
<svg version="1.1" id="Layer_1" xmlns="http://www.w3.org/2000/svg" xmlns:xlink="http://www.w3.org/1999/xlink" x="0px" y="0px"
	 viewBox="0 0 425.2 145.5" style="enable-background:new 0 0 425.2 145.5;" xml:space="preserve">
<style type="text/css">
	.st0{fill:#32285A;}
	.st1{fill:#BEA0FA;}
</style>
<g>
	<path class="st0" d="M195.7,89.9h12.5c0.8,11.9,8.6,17.8,24.2,17.8c13.7,0,21.7-4.3,21.7-14.4c0-7.5-4.1-11.1-17.8-14.3l-12.2-2.7
		c-18.6-4.4-25.8-11.5-25.8-24.9c0-14.8,11.2-25.1,32-25.1c19.2,0,32,8.6,33.8,27.1h-12.5c-1.3-11.2-8.8-15.5-21.3-15.5
		c-12.5,0-19.5,3.9-19.5,12.6c0,7.6,3.7,11.2,16.8,14.2l12.2,2.8c19.2,4.5,26.8,11.7,26.8,25.3c0,17.1-13.5,26.6-34.2,26.6
		C210.6,119.3,196.8,109.3,195.7,89.9"/>
	<path class="st0" d="M282.4,27.6h37.5c16.1,0,28.4,6.3,28.4,23.3c0,9.5-5.4,17-13.9,19.7c10.8,2.8,17,9.3,17,21.3
		c0,18.2-12.5,25.9-31.3,25.9h-37.6V27.6z M320.3,65.8c9,0,15.5-4,15.5-13.8c0-9.5-6.4-13-15.5-13h-25.4v26.8H320.3z M319.8,106.5
		c11,0,19.1-3,19.1-14.6c0-11.5-8.1-14.8-19.1-14.8h-24.9v29.4H319.8z"/>
	<polygon class="st0" points="357.3,27.6 357.3,39.2 385,39.2 385,117.9 397.5,117.9 397.5,39.2 425.2,39.2 425.2,27.6 	"/>
	<path class="st0" d="M72.7,65.2c-4.1,0-7.5,3.4-7.5,7.5c0,4.1,3.4,7.5,7.5,7.5s7.5-3.4,7.5-7.5C80.2,68.6,76.9,65.2,72.7,65.2"/>
	<path class="st0" d="M72.7,97.9c-4.1,0-7.5,3.4-7.5,7.5c0,4.1,3.4,7.5,7.5,7.5s7.5-3.4,7.5-7.5C80.2,101.2,76.9,97.9,72.7,97.9"/>
	<path class="st0" d="M72.7,32.6c-4.1,0-7.5,3.4-7.5,7.5c0,4.1,3.4,7.5,7.5,7.5s7.5-3.3,7.5-7.5C80.2,36,76.9,32.6,72.7,32.6"/>
	<path class="st0" d="M72.7,130.5c-4.1,0-7.5,3.4-7.5,7.5c0,4.1,3.4,7.5,7.5,7.5s7.5-3.4,7.5-7.5C80.2,133.9,76.9,130.5,72.7,130.5"
		/>
	<path class="st0" d="M72.7,0c-4.1,0-7.5,3.4-7.5,7.5c0,4.1,3.4,7.5,7.5,7.5s7.5-3.4,7.5-7.5C80.2,3.4,76.9,0,72.7,0"/>
	<path class="st0" d="M101.6,122.8c-3.6,2.1-4.8,6.6-2.7,10.2c2.1,3.6,6.6,4.8,10.2,2.7c3.6-2.1,4.8-6.6,2.7-10.2
		C109.8,121.9,105.2,120.7,101.6,122.8"/>
	<path class="st0" d="M36.4,9.7c-3.6,2.1-4.8,6.7-2.7,10.2c2.1,3.6,6.6,4.8,10.2,2.7c3.6-2.1,4.8-6.6,2.7-10.2
		C44.5,8.9,39.9,7.7,36.4,9.7"/>
	<path class="st0" d="M122.8,101.6c-2.1,3.6-0.8,8.2,2.7,10.2c3.6,2.1,8.2,0.8,10.2-2.7c2.1-3.6,0.8-8.2-2.7-10.2
		C129.4,96.8,124.8,98,122.8,101.6"/>
	<path class="st0" d="M9.7,36.4c-2.1,3.6-0.8,8.2,2.7,10.2c3.6,2.1,8.2,0.8,10.2-2.7c2.1-3.6,0.8-8.2-2.7-10.2
		C16.4,31.6,11.8,32.8,9.7,36.4"/>
	<path class="st0" d="M130.5,72.7c0,4.1,3.4,7.5,7.5,7.5c4.1,0,7.5-3.4,7.5-7.5s-3.4-7.5-7.5-7.5C133.9,65.2,130.5,68.6,130.5,72.7"
		/>
	<path class="st0" d="M0,72.7c0,4.1,3.4,7.5,7.5,7.5c4.1,0,7.5-3.4,7.5-7.5s-3.4-7.5-7.5-7.5C3.4,65.2,0,68.6,0,72.7"/>
	<path class="st0" d="M122.8,43.9c2.1,3.6,6.7,4.8,10.2,2.7c3.6-2.1,4.8-6.6,2.7-10.2c-2.1-3.6-6.6-4.8-10.2-2.7
		C121.9,35.7,120.7,40.3,122.8,43.9"/>
	<path class="st0" d="M9.7,109.1c2.1,3.6,6.7,4.8,10.2,2.7c3.6-2.1,4.8-6.6,2.7-10.2c-2.1-3.6-6.6-4.8-10.2-2.7
		C8.9,100.9,7.7,105.5,9.7,109.1"/>
	<path class="st0" d="M101.6,22.7c3.6,2.1,8.2,0.8,10.2-2.7c2.1-3.6,0.8-8.2-2.7-10.2c-3.6-2.1-8.2-0.8-10.2,2.7
		C96.8,16.1,98,20.6,101.6,22.7"/>
	<path class="st1" d="M36.4,135.7c3.6,2.1,8.2,0.8,10.2-2.7c2.1-3.6,0.8-8.2-2.7-10.2c-3.6-2.1-8.2-0.8-10.2,2.7
		C31.6,129.1,32.8,133.7,36.4,135.7"/>
	<path class="st0" d="M66.3,76.5c2.1,3.6,6.6,4.8,10.2,2.7c3.6-2.1,4.8-6.6,2.7-10.2c-2.1-3.6-6.6-4.8-10.2-2.7
		C65.4,68.3,64.2,72.9,66.3,76.5"/>
	<path class="st0" d="M122.8,43.9c2.1,3.6,6.7,4.8,10.2,2.7c3.6-2.1,4.8-6.6,2.7-10.2c-2.1-3.6-6.6-4.8-10.2-2.7
		C121.9,35.7,120.7,40.3,122.8,43.9"/>
	<path class="st0" d="M94.5,60.2c2.1,3.6,6.6,4.8,10.2,2.7c3.6-2.1,4.8-6.6,2.7-10.2c-2.1-3.6-6.6-4.8-10.2-2.7
		C93.7,52,92.4,56.6,94.5,60.2"/>
	<path class="st0" d="M38,92.8c2.1,3.6,6.6,4.8,10.2,2.7c3.6-2.1,4.8-6.6,2.7-10.2c-2.1-3.6-6.6-4.8-10.2-2.7
		C37.2,84.6,35.9,89.2,38,92.8"/>
	<path class="st0" d="M79.2,76.5c2.1-3.6,0.8-8.2-2.7-10.2c-3.6-2.1-8.2-0.8-10.2,2.7c-2.1,3.6-0.8,8.2,2.7,10.2
		C72.6,81.3,77.2,80.1,79.2,76.5"/>
	<path class="st0" d="M51,60.2c2.1-3.6,0.8-8.2-2.7-10.2c-3.6-2.1-8.2-0.8-10.2,2.7c-2.1,3.6-0.8,8.2,2.7,10.2
		C44.3,65,48.9,63.7,51,60.2"/>
	<path class="st0" d="M107.5,92.8c2.1-3.6,0.8-8.2-2.7-10.2c-3.6-2.1-8.2-0.8-10.2,2.7c-2.1,3.6-0.8,8.2,2.7,10.2
		C100.8,97.6,105.4,96.4,107.5,92.8"/>
</g>
</svg>
